<svg xmlns="http://www.w3.org/2000/svg" xmlns:xlink="http://www.w3.org/1999/xlink" width="500" zoomAndPan="magnify" viewBox="0 0 375 374.999991" height="500" preserveAspectRatio="xMidYMid meet" version="1.0"><defs><g/><clipPath id="23958dd550"><path d="M 0 0 L 375 0 L 375 306.75 L 0 306.75 Z M 0 0 " clip-rule="nonzero"/></clipPath></defs><g clip-path="url(#23958dd550)"><path fill="#ffffff" d="M 334.089844 45.507812 C 334.089844 47.242188 332.722656 48.652344 331.03125 48.652344 L 311.820312 48.652344 C 310.125 48.652344 308.75 47.242188 308.75 45.507812 L 308.75 13.3125 C 308.75 11.578125 310.125 10.191406 311.820312 10.191406 L 331.03125 10.191406 C 332.722656 10.191406 334.089844 11.578125 334.089844 13.3125 Z M 334.089844 293.238281 C 334.089844 294.972656 332.722656 296.382812 331.03125 296.382812 L 311.820312 296.382812 C 310.125 296.382812 308.75 294.972656 308.75 293.238281 L 308.75 261.042969 C 308.75 259.296875 310.125 257.921875 311.820312 257.921875 L 331.03125 257.921875 C 332.722656 257.921875 334.089844 259.296875 334.089844 261.042969 Z M 280.519531 293.238281 C 280.519531 294.972656 279.144531 296.382812 277.460938 296.382812 L 258.238281 296.382812 C 256.550781 296.382812 255.164062 294.972656 255.164062 293.238281 L 255.164062 261.042969 C 255.164062 259.296875 256.550781 257.921875 258.238281 257.921875 L 277.460938 257.921875 C 279.144531 257.921875 280.519531 259.296875 280.519531 261.042969 Z M 226.9375 293.238281 C 226.9375 294.972656 225.574219 296.382812 223.878906 296.382812 L 204.664062 296.382812 C 202.96875 296.382812 201.59375 294.972656 201.59375 293.238281 L 201.59375 261.042969 C 201.59375 259.296875 202.96875 257.921875 204.664062 257.921875 L 223.878906 257.921875 C 225.574219 257.921875 226.9375 259.296875 226.9375 261.042969 Z M 173.367188 293.238281 C 173.367188 294.972656 171.992188 296.382812 170.308594 296.382812 L 151.082031 296.382812 C 149.398438 296.382812 148.011719 294.972656 148.011719 293.238281 L 148.011719 261.042969 C 148.011719 259.296875 149.398438 257.921875 151.082031 257.921875 L 170.308594 257.921875 C 171.992188 257.921875 173.367188 259.296875 173.367188 261.042969 Z M 119.78125 293.238281 C 119.78125 294.972656 118.421875 296.382812 116.722656 296.382812 L 97.511719 296.382812 C 95.820312 296.382812 94.441406 294.972656 94.441406 293.238281 L 94.441406 261.042969 C 94.441406 259.296875 95.820312 257.921875 97.511719 257.921875 L 116.722656 257.921875 C 118.421875 257.921875 119.78125 259.296875 119.78125 261.042969 Z M 66.214844 293.238281 C 66.214844 294.972656 64.835938 296.382812 63.152344 296.382812 L 43.929688 296.382812 C 42.25 296.382812 40.855469 294.972656 40.855469 293.238281 L 40.855469 261.042969 C 40.855469 259.296875 42.25 257.921875 43.929688 257.921875 L 63.152344 257.921875 C 64.835938 257.921875 66.214844 259.296875 66.214844 261.042969 Z M 40.855469 13.3125 C 40.855469 11.578125 42.25 10.191406 43.929688 10.191406 L 63.152344 10.191406 C 64.835938 10.191406 66.214844 11.578125 66.214844 13.3125 L 66.214844 45.507812 C 66.214844 47.242188 64.835938 48.652344 63.152344 48.652344 L 43.929688 48.652344 C 42.25 48.652344 40.855469 47.242188 40.855469 45.507812 Z M 94.441406 13.3125 C 94.441406 11.578125 95.820312 10.191406 97.511719 10.191406 L 116.722656 10.191406 C 118.421875 10.191406 119.78125 11.578125 119.78125 13.3125 L 119.78125 45.507812 C 119.78125 47.242188 118.421875 48.652344 116.722656 48.652344 L 97.511719 48.652344 C 95.820312 48.652344 94.441406 47.242188 94.441406 45.507812 Z M 148.011719 13.3125 C 148.011719 11.578125 149.398438 10.191406 151.082031 10.191406 L 170.308594 10.191406 C 171.992188 10.191406 173.367188 11.578125 173.367188 13.3125 L 173.367188 45.507812 C 173.367188 47.242188 171.992188 48.652344 170.308594 48.652344 L 151.082031 48.652344 C 149.398438 48.652344 148.011719 47.242188 148.011719 45.507812 Z M 201.59375 13.3125 C 201.59375 11.578125 202.96875 10.191406 204.664062 10.191406 L 223.878906 10.191406 C 225.574219 10.191406 226.9375 11.578125 226.9375 13.3125 L 226.9375 45.507812 C 226.9375 47.242188 225.574219 48.652344 223.878906 48.652344 L 204.664062 48.652344 C 202.96875 48.652344 201.59375 47.242188 201.59375 45.507812 Z M 308.90625 63.640625 C 316.511719 63.640625 322.703125 69.816406 322.703125 77.433594 L 322.703125 229.128906 C 322.703125 236.746094 316.511719 242.921875 308.90625 242.921875 L 66.054688 242.921875 C 58.4375 242.921875 52.261719 236.746094 52.261719 229.128906 L 52.261719 77.433594 C 52.261719 69.816406 58.4375 63.640625 66.054688 63.640625 Z M 255.164062 13.3125 C 255.164062 11.578125 256.550781 10.191406 258.238281 10.191406 L 277.460938 10.191406 C 279.144531 10.191406 280.519531 11.578125 280.519531 13.3125 L 280.519531 45.507812 C 280.519531 47.242188 279.144531 48.652344 277.460938 48.652344 L 258.238281 48.652344 C 256.550781 48.652344 255.164062 47.242188 255.164062 45.507812 Z M 365.386719 10.191406 L 374.847656 10.191406 L 374.847656 0.0078125 L 0.113281 0.0078125 L 0.113281 10.191406 L 9.574219 10.191406 C 11.265625 10.191406 12.628906 11.578125 12.628906 13.3125 L 12.628906 45.507812 C 12.628906 47.242188 11.265625 48.652344 9.574219 48.652344 L 0.113281 48.652344 L 0.113281 63.640625 L 22.554688 63.640625 C 30.171875 63.640625 36.351562 69.816406 36.351562 77.433594 L 36.351562 229.128906 C 36.351562 236.746094 30.171875 242.921875 22.554688 242.921875 L 0.113281 242.921875 L 0.113281 257.921875 L 9.574219 257.921875 C 11.265625 257.921875 12.628906 259.296875 12.628906 261.042969 L 12.628906 293.238281 C 12.628906 294.972656 11.265625 296.382812 9.574219 296.382812 L 0.113281 296.382812 L 0.113281 306.554688 L 374.847656 306.554688 L 374.847656 296.382812 L 365.386719 296.382812 C 363.707031 296.382812 362.320312 294.972656 362.320312 293.238281 L 362.320312 261.042969 C 362.320312 259.296875 363.707031 257.921875 365.386719 257.921875 L 374.847656 257.921875 L 374.847656 242.921875 L 352.390625 242.921875 C 344.789062 242.921875 338.613281 236.746094 338.613281 229.128906 L 338.613281 77.433594 C 338.613281 69.816406 344.789062 63.640625 352.390625 63.640625 L 374.847656 63.640625 L 374.847656 48.652344 L 365.386719 48.652344 C 363.707031 48.652344 362.320312 47.242188 362.320312 45.507812 L 362.320312 13.3125 C 362.320312 11.578125 363.707031 10.191406 365.386719 10.191406 " fill-opacity="1" fill-rule="nonzero"/></g><path fill="#ffffff" d="M 259.167969 153.609375 L 259.167969 195.210938 C 259.167969 198.027344 256.121094 199.785156 253.683594 198.375 L 233.503906 188.230469 L 233.503906 198.621094 C 233.503906 202.679688 230.214844 205.964844 226.15625 205.964844 L 124.910156 205.964844 C 119.875 205.964844 115.792969 201.882812 115.792969 196.847656 L 115.792969 151.972656 C 115.792969 146.933594 119.878906 142.851562 124.917969 142.851562 L 143.535156 142.851562 C 139.679688 142 136.207031 140.132812 133.441406 137.511719 C 132.4375 136.566406 131.53125 135.523438 130.726562 134.394531 C 128.226562 130.898438 126.753906 126.613281 126.753906 121.980469 C 126.753906 110.171875 136.328125 100.597656 148.144531 100.597656 C 158.035156 100.597656 166.359375 107.320312 168.800781 116.441406 C 168.96875 117.058594 169.105469 117.691406 169.210938 118.328125 C 169.28125 118.730469 169.34375 119.136719 169.390625 119.550781 C 169.417969 119.808594 169.441406 120.070312 169.460938 120.332031 C 169.503906 120.878906 169.527344 121.425781 169.527344 121.980469 C 169.527344 122.171875 169.523438 122.367188 169.515625 122.554688 C 169.507812 122.976562 169.480469 123.390625 169.449219 123.804688 C 169.140625 127.449219 167.921875 130.832031 166.015625 133.726562 C 165.605469 134.347656 165.167969 134.945312 164.695312 135.519531 C 164.332031 135.96875 163.945312 136.402344 163.539062 136.820312 C 162.148438 138.265625 160.550781 139.515625 158.800781 140.523438 C 157.964844 141.003906 157.101562 141.429688 156.207031 141.792969 C 155.117188 142.238281 153.984375 142.585938 152.816406 142.851562 L 189.519531 142.851562 C 185.664062 142 182.191406 140.132812 179.425781 137.511719 C 178.425781 136.566406 177.515625 135.523438 176.714844 134.394531 C 174.210938 130.898438 172.742188 126.613281 172.742188 121.980469 C 172.742188 110.171875 182.316406 100.597656 194.128906 100.597656 C 204.019531 100.597656 212.347656 107.320312 214.785156 116.441406 C 214.953125 117.058594 215.089844 117.691406 215.195312 118.328125 C 215.269531 118.730469 215.328125 119.136719 215.375 119.550781 C 215.40625 119.808594 215.425781 120.070312 215.449219 120.332031 C 215.488281 120.878906 215.511719 121.425781 215.511719 121.980469 C 215.511719 122.171875 215.507812 122.367188 215.503906 122.554688 C 215.492188 122.976562 215.46875 123.390625 215.433594 123.804688 C 215.128906 127.449219 213.90625 130.832031 212 133.726562 C 211.59375 134.347656 211.152344 134.945312 210.683594 135.519531 C 210.3125 135.96875 209.929688 136.402344 209.527344 136.820312 C 208.132812 138.265625 206.539062 139.515625 204.78125 140.523438 C 203.949219 141.003906 203.089844 141.429688 202.191406 141.792969 C 201.101562 142.238281 199.96875 142.585938 198.800781 142.851562 L 224.378906 142.851562 C 229.417969 142.851562 233.503906 146.933594 233.503906 151.972656 L 233.503906 160.585938 L 253.683594 150.441406 C 256.121094 149.03125 259.167969 150.789062 259.167969 153.609375 " fill-opacity="1" fill-rule="nonzero"/><g fill="#ffffff" fill-opacity="1"><g transform="translate(72.232267, 373.629902)"><g><path d="M 30.46875 -46.8125 L 30.46875 -37.453125 L 14.078125 -37.453125 L 14.078125 -28.140625 L 29.21875 -28.140625 L 29.21875 -18.78125 L 14.078125 -18.78125 L 14.078125 0 L 3.40625 0 L 3.40625 -46.8125 Z M 30.46875 -46.8125 "/></g></g></g><g fill="#ffffff" fill-opacity="1"><g transform="translate(105.480635, 373.629902)"><g><path d="M 14.078125 -46.8125 L 14.078125 0 L 3.40625 0 L 3.40625 -46.8125 Z M 14.078125 -46.8125 "/></g></g></g><g fill="#ffffff" fill-opacity="1"><g transform="translate(124.03405, 373.629902)"><g><path d="M 14.078125 -46.8125 L 14.078125 -9.359375 L 30.1875 -9.359375 L 30.1875 0 L 3.40625 0 L 3.40625 -46.8125 Z M 14.078125 -46.8125 "/></g></g></g><g fill="#ffffff" fill-opacity="1"><g transform="translate(157.168946, 373.629902)"><g><path d="M 42.109375 0 L 39.890625 -27.75 L 39.609375 -27.75 L 30.015625 -0.28125 L 23.671875 -0.28125 L 14.078125 -27.75 L 13.796875 -27.75 L 11.578125 0 L 0.90625 0 L 5.109375 -46.8125 L 16.453125 -46.8125 L 26.84375 -19.8125 L 37.234375 -46.8125 L 48.578125 -46.8125 L 52.78125 0 Z M 42.109375 0 "/></g></g></g><g fill="#ffffff" fill-opacity="1"><g transform="translate(211.920759, 373.629902)"><g><path d="M 27.1875 -46.8125 L 46.078125 0 L 34.625 0 L 31.15625 -9.359375 L 13.34375 -9.359375 L 9.875 0 L -1.59375 0 L 17.3125 -46.8125 Z M 27.53125 -18.734375 L 22.296875 -32.34375 L 22.1875 -32.34375 L 16.96875 -18.734375 Z M 27.53125 -18.734375 "/></g></g></g><g fill="#ffffff" fill-opacity="1"><g transform="translate(257.481125, 373.629902)"><g><path d="M 47.21875 0 L 33.421875 0 L 22.359375 -15.953125 L 11.296875 0 L -1.921875 0 L 15.78125 -25.203125 L 1.015625 -46.8125 L 13.734375 -46.8125 L 22.359375 -34.046875 L 30.984375 -46.8125 L 44.265625 -46.8125 L 28.9375 -25.203125 Z M 47.21875 0 "/></g></g></g></svg>