<svg xmlns="http://www.w3.org/2000/svg" xmlns:xlink="http://www.w3.org/1999/xlink" width="500" zoomAndPan="magnify" viewBox="0 0 375 374.999991" height="500" preserveAspectRatio="xMidYMid meet" version="1.0"><defs><g/><clipPath id="9d124a5173"><path d="M 151.492188 120.765625 L 223.492188 120.765625 L 223.492188 179.265625 L 151.492188 179.265625 Z M 151.492188 120.765625 " clip-rule="nonzero"/></clipPath></defs><g clip-path="url(#9d124a5173)"><path fill="#ffffff" d="M 215.644531 129.503906 C 215.644531 129.839844 215.382812 130.109375 215.058594 130.109375 L 211.367188 130.109375 C 211.042969 130.109375 210.777344 129.839844 210.777344 129.503906 L 210.777344 123.324219 C 210.777344 122.988281 211.042969 122.722656 211.367188 122.722656 L 215.058594 122.722656 C 215.382812 122.722656 215.644531 122.988281 215.644531 123.324219 Z M 215.644531 177.070312 C 215.644531 177.40625 215.382812 177.675781 215.058594 177.675781 L 211.367188 177.675781 C 211.042969 177.675781 210.777344 177.40625 210.777344 177.070312 L 210.777344 170.890625 C 210.777344 170.554688 211.042969 170.289062 211.367188 170.289062 L 215.058594 170.289062 C 215.382812 170.289062 215.644531 170.554688 215.644531 170.890625 Z M 205.359375 177.070312 C 205.359375 177.40625 205.09375 177.675781 204.769531 177.675781 L 201.078125 177.675781 C 200.753906 177.675781 200.488281 177.40625 200.488281 177.070312 L 200.488281 170.890625 C 200.488281 170.554688 200.753906 170.289062 201.078125 170.289062 L 204.769531 170.289062 C 205.09375 170.289062 205.359375 170.554688 205.359375 170.890625 Z M 195.070312 177.070312 C 195.070312 177.40625 194.808594 177.675781 194.484375 177.675781 L 190.792969 177.675781 C 190.46875 177.675781 190.203125 177.40625 190.203125 177.070312 L 190.203125 170.890625 C 190.203125 170.554688 190.46875 170.289062 190.792969 170.289062 L 194.484375 170.289062 C 194.808594 170.289062 195.070312 170.554688 195.070312 170.890625 Z M 184.785156 177.070312 C 184.785156 177.40625 184.519531 177.675781 184.195312 177.675781 L 180.503906 177.675781 C 180.179688 177.675781 179.914062 177.40625 179.914062 177.070312 L 179.914062 170.890625 C 179.914062 170.554688 180.179688 170.289062 180.503906 170.289062 L 184.195312 170.289062 C 184.519531 170.289062 184.785156 170.554688 184.785156 170.890625 Z M 174.496094 177.070312 C 174.496094 177.40625 174.234375 177.675781 173.90625 177.675781 L 170.21875 177.675781 C 169.894531 177.675781 169.628906 177.40625 169.628906 177.070312 L 169.628906 170.890625 C 169.628906 170.554688 169.894531 170.289062 170.21875 170.289062 L 173.90625 170.289062 C 174.234375 170.289062 174.496094 170.554688 174.496094 170.890625 Z M 164.207031 177.070312 C 164.207031 177.40625 163.945312 177.675781 163.621094 177.675781 L 159.929688 177.675781 C 159.609375 177.675781 159.339844 177.40625 159.339844 177.070312 L 159.339844 170.890625 C 159.339844 170.554688 159.609375 170.289062 159.929688 170.289062 L 163.621094 170.289062 C 163.945312 170.289062 164.207031 170.554688 164.207031 170.890625 Z M 159.339844 123.324219 C 159.339844 122.988281 159.609375 122.722656 159.929688 122.722656 L 163.621094 122.722656 C 163.945312 122.722656 164.207031 122.988281 164.207031 123.324219 L 164.207031 129.503906 C 164.207031 129.839844 163.945312 130.109375 163.621094 130.109375 L 159.929688 130.109375 C 159.609375 130.109375 159.339844 129.839844 159.339844 129.503906 Z M 169.628906 123.324219 C 169.628906 122.988281 169.894531 122.722656 170.21875 122.722656 L 173.90625 122.722656 C 174.234375 122.722656 174.496094 122.988281 174.496094 123.324219 L 174.496094 129.503906 C 174.496094 129.839844 174.234375 130.109375 173.90625 130.109375 L 170.21875 130.109375 C 169.894531 130.109375 169.628906 129.839844 169.628906 129.503906 Z M 179.914062 123.324219 C 179.914062 122.988281 180.179688 122.722656 180.503906 122.722656 L 184.195312 122.722656 C 184.519531 122.722656 184.785156 122.988281 184.785156 123.324219 L 184.785156 129.503906 C 184.785156 129.839844 184.519531 130.109375 184.195312 130.109375 L 180.503906 130.109375 C 180.179688 130.109375 179.914062 129.839844 179.914062 129.503906 Z M 190.203125 123.324219 C 190.203125 122.988281 190.46875 122.722656 190.792969 122.722656 L 194.484375 122.722656 C 194.808594 122.722656 195.070312 122.988281 195.070312 123.324219 L 195.070312 129.503906 C 195.070312 129.839844 194.808594 130.109375 194.484375 130.109375 L 190.792969 130.109375 C 190.46875 130.109375 190.203125 129.839844 190.203125 129.503906 Z M 210.808594 132.984375 C 212.269531 132.984375 213.457031 134.171875 213.457031 135.636719 L 213.457031 164.761719 C 213.457031 166.222656 212.269531 167.410156 210.808594 167.410156 L 164.179688 167.410156 C 162.714844 167.410156 161.53125 166.222656 161.53125 164.761719 L 161.53125 135.636719 C 161.53125 134.171875 162.714844 132.984375 164.179688 132.984375 Z M 200.488281 123.324219 C 200.488281 122.988281 200.753906 122.722656 201.078125 122.722656 L 204.769531 122.722656 C 205.09375 122.722656 205.359375 122.988281 205.359375 123.324219 L 205.359375 129.503906 C 205.359375 129.839844 205.09375 130.109375 204.769531 130.109375 L 201.078125 130.109375 C 200.753906 130.109375 200.488281 129.839844 200.488281 129.503906 Z M 221.652344 122.722656 L 223.46875 122.722656 L 223.46875 120.769531 L 151.515625 120.769531 L 151.515625 122.722656 L 153.332031 122.722656 C 153.660156 122.722656 153.921875 122.988281 153.921875 123.324219 L 153.921875 129.503906 C 153.921875 129.839844 153.660156 130.109375 153.332031 130.109375 L 151.515625 130.109375 L 151.515625 132.984375 L 155.824219 132.984375 C 157.289062 132.984375 158.476562 134.171875 158.476562 135.636719 L 158.476562 164.761719 C 158.476562 166.222656 157.289062 167.410156 155.824219 167.410156 L 151.515625 167.410156 L 151.515625 170.289062 L 153.332031 170.289062 C 153.660156 170.289062 153.921875 170.554688 153.921875 170.890625 L 153.921875 177.070312 C 153.921875 177.40625 153.660156 177.675781 153.332031 177.675781 L 151.515625 177.675781 L 151.515625 179.628906 L 223.46875 179.628906 L 223.46875 177.675781 L 221.652344 177.675781 C 221.332031 177.675781 221.0625 177.40625 221.0625 177.070312 L 221.0625 170.890625 C 221.0625 170.554688 221.332031 170.289062 221.652344 170.289062 L 223.46875 170.289062 L 223.46875 167.410156 L 219.15625 167.410156 C 217.699219 167.410156 216.511719 166.222656 216.511719 164.761719 L 216.511719 135.636719 C 216.511719 134.171875 217.699219 132.984375 219.15625 132.984375 L 223.46875 132.984375 L 223.46875 130.109375 L 221.652344 130.109375 C 221.332031 130.109375 221.0625 129.839844 221.0625 129.503906 L 221.0625 123.324219 C 221.0625 122.988281 221.332031 122.722656 221.652344 122.722656 " fill-opacity="1" fill-rule="nonzero"/></g><path fill="#ffffff" d="M 201.257812 150.261719 L 201.257812 158.25 C 201.257812 158.789062 200.671875 159.128906 200.207031 158.855469 L 196.332031 156.910156 L 196.332031 158.90625 C 196.332031 159.683594 195.699219 160.316406 194.917969 160.316406 L 175.480469 160.316406 C 174.511719 160.316406 173.730469 159.53125 173.730469 158.5625 L 173.730469 149.949219 C 173.730469 148.980469 174.511719 148.195312 175.480469 148.195312 L 179.054688 148.195312 C 178.316406 148.03125 177.648438 147.675781 177.117188 147.171875 C 176.925781 146.988281 176.75 146.789062 176.597656 146.574219 C 176.117188 145.902344 175.832031 145.078125 175.832031 144.1875 C 175.832031 141.921875 177.671875 140.082031 179.941406 140.082031 C 181.839844 140.082031 183.4375 141.375 183.90625 143.125 C 183.9375 143.242188 183.964844 143.363281 183.984375 143.488281 C 184 143.566406 184.011719 143.644531 184.019531 143.722656 C 184.023438 143.769531 184.03125 143.820312 184.035156 143.871094 C 184.042969 143.976562 184.046875 144.082031 184.046875 144.1875 C 184.046875 144.226562 184.046875 144.261719 184.042969 144.300781 C 184.042969 144.378906 184.039062 144.460938 184.03125 144.539062 C 183.972656 145.238281 183.738281 145.886719 183.371094 146.445312 C 183.292969 146.5625 183.210938 146.675781 183.117188 146.789062 C 183.046875 146.875 182.976562 146.957031 182.898438 147.039062 C 182.628906 147.316406 182.324219 147.554688 181.988281 147.75 C 181.828125 147.839844 181.660156 147.921875 181.488281 147.992188 C 181.28125 148.078125 181.0625 148.144531 180.835938 148.195312 L 187.886719 148.195312 C 187.144531 148.03125 186.476562 147.675781 185.945312 147.171875 C 185.753906 146.988281 185.578125 146.789062 185.425781 146.574219 C 184.945312 145.902344 184.664062 145.078125 184.664062 144.1875 C 184.664062 141.921875 186.503906 140.082031 188.769531 140.082031 C 190.667969 140.082031 192.269531 141.375 192.738281 143.125 C 192.769531 143.242188 192.792969 143.363281 192.816406 143.488281 C 192.828125 143.566406 192.839844 143.644531 192.847656 143.722656 C 192.855469 143.769531 192.859375 143.820312 192.863281 143.871094 C 192.871094 143.976562 192.875 144.082031 192.875 144.1875 C 192.875 144.226562 192.875 144.261719 192.875 144.300781 C 192.871094 144.378906 192.867188 144.460938 192.859375 144.539062 C 192.800781 145.238281 192.566406 145.886719 192.203125 146.445312 C 192.125 146.5625 192.039062 146.675781 191.949219 146.789062 C 191.878906 146.875 191.804688 146.957031 191.726562 147.039062 C 191.457031 147.316406 191.152344 147.554688 190.816406 147.75 C 190.65625 147.839844 190.492188 147.921875 190.316406 147.992188 C 190.109375 148.078125 189.890625 148.144531 189.667969 148.195312 L 194.578125 148.195312 C 195.546875 148.195312 196.332031 148.980469 196.332031 149.949219 L 196.332031 151.601562 L 200.207031 149.652344 C 200.671875 149.382812 201.257812 149.71875 201.257812 150.261719 " fill-opacity="1" fill-rule="nonzero"/><g fill="#ffffff" fill-opacity="1"><g transform="translate(96.837082, 224.937227)"><g><path d="M 23.96875 -36.828125 L 23.96875 -29.46875 L 11.078125 -29.46875 L 11.078125 -22.140625 L 22.984375 -22.140625 L 22.984375 -14.78125 L 11.078125 -14.78125 L 11.078125 0 L 2.671875 0 L 2.671875 -36.828125 Z M 23.96875 -36.828125 "/></g></g></g><g fill="#ffffff" fill-opacity="1"><g transform="translate(122.98832, 224.937227)"><g><path d="M 11.078125 -36.828125 L 11.078125 0 L 2.671875 0 L 2.671875 -36.828125 Z M 11.078125 -36.828125 "/></g></g></g><g fill="#ffffff" fill-opacity="1"><g transform="translate(137.58136, 224.937227)"><g><path d="M 11.078125 -36.828125 L 11.078125 -7.359375 L 23.75 -7.359375 L 23.75 0 L 2.671875 0 L 2.671875 -36.828125 Z M 11.078125 -36.828125 "/></g></g></g><g fill="#ffffff" fill-opacity="1"><g transform="translate(163.643348, 224.937227)"><g><path d="M 33.125 0 L 31.375 -21.828125 L 31.15625 -21.828125 L 23.609375 -0.21875 L 18.609375 -0.21875 L 11.078125 -21.828125 L 10.84375 -21.828125 L 9.109375 0 L 0.71875 0 L 4.015625 -36.828125 L 12.953125 -36.828125 L 21.109375 -15.578125 L 29.28125 -36.828125 L 38.21875 -36.828125 L 41.515625 0 Z M 33.125 0 "/></g></g></g><g fill="#ffffff" fill-opacity="1"><g transform="translate(206.707949, 224.937227)"><g><path d="M 21.390625 -36.828125 L 36.25 0 L 27.234375 0 L 24.5 -7.359375 L 10.484375 -7.359375 L 7.765625 0 L -1.25 0 L 13.609375 -36.828125 Z M 21.65625 -14.734375 L 17.546875 -25.4375 L 17.453125 -25.4375 L 13.34375 -14.734375 Z M 21.65625 -14.734375 "/></g></g></g><g fill="#ffffff" fill-opacity="1"><g transform="translate(242.543091, 224.937227)"><g><path d="M 37.140625 0 L 26.296875 0 L 17.59375 -12.546875 L 8.890625 0 L -1.515625 0 L 12.40625 -19.828125 L 0.796875 -36.828125 L 10.796875 -36.828125 L 17.59375 -26.78125 L 24.375 -36.828125 L 34.8125 -36.828125 L 22.765625 -19.828125 Z M 37.140625 0 "/></g></g></g></svg>